# xmcd CD database file
#
# Track frame offsets:
#	150
#	17012
#	31306
#	45888
#	67000
#	91268
#	103818
#	124369
#	135836
#	147919
#	160069
#	173488
#	197135
#	210070
#	231090
#	248570
#	260415
#	276943
#
# Disc length: 3993 seconds
#
# Revision: 0
# Processed by: cddbd v1.5PL3 Copyright (c) Steve Scherf et al.
# Submitted via: CDex 1.50beta10
#
DISCID=ea0f9712
DTITLE=Summer Jazz - Summer Jazz
DYEAR=2004
DGENRE=Jazz
TTITLE0=DUKE ELLINGTON-SATIN DOLL
TTITLE1=ELLA FITZGERALD-THESE FOOLISH THINGS
TTITLE2=MONGO SANTAMARIA-WHATERMELON MAN
TTITLE3=CHET BAKER-SHE WAS TOO GOOD TO BE
TTITLE4=RAY BRYANT-AUTUMN LEAVES
TTITLE5=ARETHA FRANKLIN-TODAY I SING THE BLUES
TTITLE6=TOOTS THIELEMANS-BLUESETTE
TTITLE7=OSCAR BROWN JR.-WORK SONG
TTITLE8=TEDDY WILSON-MISTY
TTITLE9=MEL TORME-STRANGERS IN THE NIGHT
TTITLE10=THE JAY and KAI TROMBONE OCTET-NIGHT IN TUNICIA
TTITLE11=PAUL DESMOND-NUAGES
TTITLE12=NEAL HEFTI-GIRL TALK
TTITLE13=MARION WILLIAMS-DIDN'T RAIN
TTITLE14=Essentiel Jazz 1-I GOT RHYTHM
TTITLE15=Essentiel Jazz 1-NOTHING'S TOO GOOD FOR MY BABY
TTITLE16=Essentiel Jazz 2-MOONLIGHT SERENADE
TTITLE17=Essentiel Jazz 2-PRECIOUS THING
EXTD=YEAR: 2004
EXTT0=
EXTT1=
EXTT2=
EXTT3=
EXTT4=
EXTT5=
EXTT6=
EXTT7=
EXTT8=
EXTT9=
EXTT10=
EXTT11=
EXTT12=
EXTT13=
EXTT14=
EXTT15=
EXTT16=
EXTT17=
PLAYORDER=
